<svg xmlns="http://www.w3.org/2000/svg" viewBox="0 0 128 128">
  <path d="M30 18 C 26 52, 42 88, 82 100 C 98 104.5, 110 100, 116 91 C 117.5 88.5, 116 86, 112.5 87 C 104 94, 92 95, 78 90.5 C 48 80, 36 52, 38 22 C 38 17, 34.5 15, 31.5 16 Z"
        fill="#ffd23f" stroke="#c99617" stroke-width="4" stroke-linejoin="round"/>
  <path d="M28 13 l9 -3 4 9 -9 3 Z" fill="#8a6508"/>
  <path d="M112 85 l8 4 -4 7 -7 -4 Z" fill="#8a6508"/>
  <path d="M42 30 C 44 56, 58 78, 84 88" fill="none" stroke="#fff3c4" stroke-width="5" stroke-linecap="round" opacity=".7"/>
</svg>
