<?xml version="1.0" encoding="UTF-8"?>
<svg id="Layer_2" data-name="Layer 2" xmlns="http://www.w3.org/2000/svg" viewBox="0 0 319.67 88.16">
  <defs>
    <style>
      .cls-1 {
        fill: #582953;
      }

      .cls-1, .cls-2 {
        stroke-width: 0px;
      }

      .cls-2 {
        fill: #b962a7;
      }
    </style>
  </defs>
  <g id="Layer_1-2" data-name="Layer 1">
    <path class="cls-2" d="M55.25,81.27H21.26l3.97,6.89h34s17.04-29.52,17.04-29.52l-3.98-6.89-17.05,29.52ZM0,43.87l17.04,29.51h0s33.99,0,33.99,0l3.97-6.88H21.02L3.98,36.99l-3.98,6.89ZM67.99,28.97l17.05,29.53-16.99,29.43h7.95l17-29.44h0s-17.04-29.52-17.04-29.52h-7.95ZM42.44,28.43l-8.84,15.32,8.84,15.32h16.8l3.92-6.93h-16.75l-4.84-8.39,4.84-8.4h16.75l-3.36-6.92h-17.36ZM50.82,14.63l-3.98,6.88h33.99l17.05,29.52,3.98-6.88-17.04-29.51h0s-33.99-.01-33.99-.01ZM25.32,29.57l3.97,6.89L46.28,7.02h34.09l-3.98-6.89h-34.09s-17,29.44-17,29.44ZM25.69,0L8.7,29.44h0s17.04,29.52,17.04,29.52h7.95l-17.04-29.52L33.65,0h-7.95Z"/>
    <path class="cls-1" d="M130.16,51.34c-2.93,0-5.59-.61-7.98-1.84-2.38-1.22-4.27-2.99-5.65-5.31-1.39-2.32-2.08-5.13-2.08-8.44v-.85c0-3.3.69-6.11,2.08-8.44,1.38-2.32,3.27-4.09,5.65-5.32,2.38-1.22,5.04-1.83,7.98-1.83s5.38.51,7.45,1.53c2.08,1.02,3.76,2.41,5.04,4.19,1.28,1.77,2.13,3.77,2.54,6.02l-7.46,1.59c-.16-1.22-.53-2.32-1.1-3.3-.57-.98-1.37-1.75-2.41-2.32-1.04-.57-2.34-.85-3.88-.85s-2.94.34-4.19,1.01c-1.24.68-2.22,1.67-2.94,3-.71,1.33-1.07,2.94-1.07,4.86v.61c0,1.92.36,3.54,1.07,4.86.71,1.33,1.69,2.32,2.94,3,1.24.67,2.63,1.01,4.19,1.01,2.32,0,4.08-.6,5.29-1.8,1.2-1.2,1.97-2.78,2.29-4.74l7.46,1.78c-.53,2.15-1.44,4.12-2.72,5.89-1.28,1.77-2.96,3.17-5.04,4.19-2.07,1.02-4.56,1.53-7.45,1.53"/>
    <path class="cls-1" d="M155.03,62.71v-6.72h16.5c1.14,0,1.71-.61,1.71-1.83v-7.64h-1.1c-.32.69-.83,1.39-1.53,2.08-.69.69-1.63,1.26-2.81,1.71-1.18.45-2.69.68-4.52.68-2.36,0-4.43-.54-6.2-1.62-1.77-1.08-3.15-2.58-4.12-4.49-.98-1.92-1.47-4.12-1.47-6.6v-18.09h7.7v17.48c0,2.28.56,3.99,1.68,5.13,1.12,1.14,2.72,1.71,4.8,1.71,2.36,0,4.19-.78,5.5-2.35,1.31-1.57,1.96-3.76,1.96-6.57v-15.4h7.7v35.69c0,2.07-.61,3.73-1.83,4.98-1.22,1.24-2.85,1.86-4.89,1.86h-19.07Z"/>
    <rect class="cls-1" x="189.37" y="7.71" width="7.7" height="42.78"/>
    <rect class="cls-1" x="205.63" y="7.71" width="7.7" height="42.78"/>
    <path class="cls-1" d="M221.89,20.17h7.7v30.31h-7.7v-30.31ZM225.74,16.63c-1.39,0-2.56-.45-3.51-1.35-.96-.9-1.44-2.08-1.44-3.54s.48-2.65,1.44-3.55c.96-.9,2.13-1.34,3.51-1.34s2.61.45,3.55,1.34c.94.9,1.4,2.08,1.4,3.55s-.47,2.65-1.4,3.54c-.94.9-2.12,1.35-3.55,1.35"/>
    <path class="cls-1" d="M249.69,50.98c-2.36,0-4.43-.54-6.2-1.62-1.77-1.08-3.15-2.58-4.13-4.5-.98-1.91-1.47-4.11-1.47-6.6v-18.09h7.7v17.48c0,2.28.56,3.99,1.68,5.13,1.12,1.14,2.72,1.71,4.8,1.71,2.36,0,4.19-.78,5.5-2.35,1.3-1.57,1.95-3.76,1.95-6.57v-15.4h7.7v30.31h-7.58v-3.97h-1.1c-.49,1.02-1.41,2.02-2.75,2.99-1.35.98-3.38,1.47-6.12,1.47"/>
    <path class="cls-1" d="M275.79,50.49v-30.31h7.58v3.3h1.1c.53-1.02,1.41-1.91,2.63-2.66,1.22-.75,2.83-1.13,4.82-1.13,2.16,0,3.89.42,5.2,1.25,1.3.84,2.3,1.92,3,3.27h1.1c.69-1.31,1.67-2.38,2.93-3.24,1.26-.85,3.05-1.28,5.38-1.28,1.88,0,3.58.4,5.11,1.19,1.52.79,2.75,2,3.66,3.61.92,1.61,1.38,3.64,1.38,6.08v19.92h-7.7v-19.37c0-1.67-.43-2.92-1.29-3.76-.85-.84-2.06-1.25-3.6-1.25-1.75,0-3.11.56-4.06,1.68-.96,1.12-1.44,2.72-1.44,4.8v17.9h-7.7v-19.37c0-1.67-.43-2.92-1.28-3.76-.86-.84-2.06-1.25-3.6-1.25-1.76,0-3.11.56-4.07,1.68-.96,1.12-1.44,2.72-1.44,4.8v17.9h-7.7Z"/>
    <polygon class="cls-1" points="117.4 72.91 118.24 72.91 118.24 79.57 122.42 79.57 122.42 80.34 117.4 80.34 117.4 72.91"/>
    <polygon class="cls-1" points="124.33 72.91 129.71 72.91 129.71 73.68 125.17 73.68 125.17 76.21 129.23 76.21 129.23 76.98 125.17 76.98 125.17 79.58 129.76 79.58 129.76 80.34 124.33 80.34 124.33 72.91"/>
    <path class="cls-1" d="M134.55,72.86h.79l3.39,7.49h-.9l-.87-1.97h-4.05l-.88,1.97h-.86l3.39-7.49ZM136.62,77.63l-1.69-3.79-1.7,3.79h3.39Z"/>
    <path class="cls-1" d="M140.55,72.91h2.58c2.34,0,3.95,1.6,3.95,3.7v.02c0,2.09-1.61,3.72-3.95,3.72h-2.58v-7.43ZM143.13,79.57c1.88,0,3.08-1.27,3.08-2.92v-.02c0-1.65-1.2-2.94-3.08-2.94h-1.74v5.88h1.74Z"/>
    <polygon class="cls-1" points="155.07 77.4 151.98 72.91 153 72.91 155.51 76.63 158.04 72.91 159.01 72.91 155.92 77.39 155.92 80.34 155.07 80.34 155.07 77.4"/>
    <path class="cls-1" d="M159.74,76.65v-.02c0-2.05,1.54-3.85,3.8-3.85s3.78,1.77,3.78,3.82v.02c0,2.05-1.54,3.84-3.8,3.84s-3.78-1.77-3.78-3.82M166.45,76.65v-.02c0-1.69-1.23-3.07-2.93-3.07s-2.91,1.36-2.91,3.05v.02c0,1.69,1.23,3.07,2.93,3.07s2.91-1.36,2.91-3.05"/>
    <path class="cls-1" d="M169.34,77.23v-4.32h.84v4.27c0,1.6.85,2.51,2.27,2.51s2.24-.83,2.24-2.45v-4.32h.84v4.26c0,2.17-1.24,3.29-3.1,3.29s-3.09-1.13-3.09-3.23"/>
    <path class="cls-1" d="M177.87,72.91h3.2c.91,0,1.65.28,2.11.74.36.36.57.88.57,1.47v.02c0,1.23-.85,1.95-2.02,2.17l2.28,3.04h-1.03l-2.16-2.89h-2.12v2.89h-.84v-7.44ZM181,76.7c1.11,0,1.91-.57,1.91-1.53v-.02c0-.91-.7-1.47-1.9-1.47h-2.29v3.02h2.28Z"/>
    <path class="cls-1" d="M189.45,72.91h3.17c.85,0,1.52.24,1.94.66.31.32.48.71.48,1.19v.02c0,.97-.6,1.47-1.18,1.72.88.27,1.59.78,1.59,1.8v.02c0,1.27-1.07,2.03-2.7,2.03h-3.3v-7.43ZM192.47,76.22c1.01,0,1.71-.46,1.71-1.33v-.02c0-.73-.58-1.21-1.65-1.21h-2.26v2.56h2.2ZM192.77,79.59c1.13,0,1.83-.5,1.83-1.33v-.02c0-.81-.68-1.27-1.98-1.27h-2.35v2.62h2.5Z"/>
    <path class="cls-1" d="M197.35,77.23v-4.32h.84v4.27c0,1.6.85,2.51,2.27,2.51s2.24-.83,2.24-2.45v-4.32h.84v4.26c0,2.17-1.24,3.29-3.1,3.29s-3.09-1.13-3.09-3.23"/>
    <path class="cls-1" d="M205.4,79.26l.52-.62c.78.7,1.52,1.05,2.55,1.05s1.66-.53,1.66-1.26v-.02c0-.69-.37-1.08-1.93-1.41-1.71-.37-2.5-.92-2.5-2.15v-.02c0-1.17,1.03-2.03,2.44-2.03,1.08,0,1.86.31,2.61.91l-.49.65c-.69-.56-1.38-.81-2.14-.81-.97,0-1.58.53-1.58,1.2v.02c0,.7.38,1.09,2.02,1.44,1.66.36,2.42.97,2.42,2.1v.02c0,1.27-1.06,2.1-2.54,2.1-1.18,0-2.15-.39-3.04-1.19"/>
    <rect class="cls-1" x="213.11" y="72.91" width=".84" height="7.43"/>
    <polygon class="cls-1" points="216.48 72.91 217.27 72.91 221.95 78.87 221.95 72.91 222.77 72.91 222.77 80.34 222.1 80.34 217.3 74.25 217.3 80.34 216.48 80.34 216.48 72.91"/>
    <polygon class="cls-1" points="225.23 72.91 230.6 72.91 230.6 73.68 226.07 73.68 226.07 76.21 230.13 76.21 230.13 76.98 226.07 76.98 226.07 79.58 230.66 79.58 230.66 80.34 225.23 80.34 225.23 72.91"/>
    <path class="cls-1" d="M232.21,79.26l.52-.62c.77.7,1.52,1.05,2.55,1.05s1.66-.53,1.66-1.26v-.02c0-.69-.37-1.08-1.93-1.41-1.71-.37-2.5-.92-2.5-2.15v-.02c0-1.17,1.03-2.03,2.44-2.03,1.08,0,1.86.31,2.61.91l-.49.65c-.69-.56-1.38-.81-2.14-.81-.97,0-1.58.53-1.58,1.2v.02c0,.7.38,1.09,2.02,1.44,1.66.36,2.42.97,2.42,2.1v.02c0,1.27-1.06,2.1-2.54,2.1-1.18,0-2.15-.39-3.04-1.19"/>
    <path class="cls-1" d="M239.26,79.26l.52-.62c.77.7,1.52,1.05,2.55,1.05s1.66-.53,1.66-1.26v-.02c0-.69-.37-1.08-1.93-1.41-1.71-.37-2.5-.92-2.5-2.15v-.02c0-1.17,1.03-2.03,2.44-2.03,1.08,0,1.86.31,2.61.91l-.49.65c-.69-.56-1.38-.81-2.14-.81-.97,0-1.58.53-1.58,1.2v.02c0,.7.38,1.09,2.02,1.44,1.66.36,2.42.97,2.42,2.1v.02c0,1.27-1.06,2.1-2.54,2.1-1.18,0-2.15-.39-3.04-1.19"/>
    <path class="cls-1" d="M250.44,72.91h2.78c1.68,0,2.78.89,2.78,2.36v.02c0,1.6-1.34,2.43-2.92,2.43h-1.81v2.62h-.84v-7.43ZM253.11,76.96c1.23,0,2.04-.66,2.04-1.64v-.02c0-1.06-.8-1.61-2-1.61h-1.88v3.27h1.84Z"/>
    <path class="cls-1" d="M257.89,72.91h3.2c.91,0,1.65.28,2.11.74.36.36.57.88.57,1.47v.02c0,1.23-.85,1.95-2.02,2.17l2.28,3.04h-1.03l-2.15-2.89h-2.12v2.89h-.84v-7.44ZM261.01,76.7c1.12,0,1.91-.57,1.91-1.53v-.02c0-.91-.7-1.47-1.9-1.47h-2.29v3.02h2.28Z"/>
    <path class="cls-1" d="M265.59,76.65v-.02c0-2.05,1.54-3.85,3.8-3.85s3.78,1.77,3.78,3.82v.02c0,2.05-1.54,3.84-3.8,3.84s-3.78-1.77-3.78-3.82M272.31,76.65v-.02c0-1.69-1.23-3.07-2.93-3.07s-2.91,1.36-2.91,3.05v.02c0,1.69,1.23,3.07,2.93,3.07s2.91-1.36,2.91-3.05"/>
    <polygon class="cls-1" points="276.76 73.69 274.27 73.69 274.27 72.91 280.11 72.91 280.11 73.69 277.61 73.69 277.61 80.34 276.76 80.34 276.76 73.69"/>
    <polygon class="cls-1" points="282.03 72.91 287.41 72.91 287.41 73.68 282.87 73.68 282.87 76.21 286.93 76.21 286.93 76.98 282.87 76.98 282.87 79.58 287.46 79.58 287.46 80.34 282.03 80.34 282.03 72.91"/>
    <path class="cls-1" d="M289.18,76.65v-.02c0-2.1,1.57-3.85,3.76-3.85,1.35,0,2.16.48,2.9,1.18l-.57.62c-.63-.59-1.33-1.02-2.34-1.02-1.65,0-2.88,1.34-2.88,3.05v.02c0,1.72,1.24,3.07,2.88,3.07,1.02,0,1.69-.39,2.4-1.07l.55.54c-.78.79-1.62,1.31-2.97,1.31-2.15,0-3.73-1.69-3.73-3.82"/>
    <polygon class="cls-1" points="299.66 73.69 297.17 73.69 297.17 72.91 303.01 72.91 303.01 73.69 300.51 73.69 300.51 80.34 299.66 80.34 299.66 73.69"/>
    <polygon class="cls-1" points="304.94 72.91 310.31 72.91 310.31 73.68 305.78 73.68 305.78 76.21 309.83 76.21 309.83 76.98 305.78 76.98 305.78 79.58 310.36 79.58 310.36 80.34 304.94 80.34 304.94 72.91"/>
    <path class="cls-1" d="M312.41,72.91h2.58c2.34,0,3.95,1.6,3.95,3.7v.02c0,2.09-1.61,3.72-3.95,3.72h-2.58v-7.43ZM314.99,79.57c1.88,0,3.08-1.27,3.08-2.92v-.02c0-1.65-1.2-2.94-3.08-2.94h-1.74v5.88h1.74Z"/>
  </g>
</svg>