<?xml version="1.0" encoding="UTF-8"?>
<svg id="Layer_1" data-name="Layer 1" xmlns="http://www.w3.org/2000/svg" xmlns:xlink="http://www.w3.org/1999/xlink" viewBox="0 0 229.68 50">
  <defs>
    <style>
      .cls-1 {
        fill: url(#linear-gradient);
      }

      .cls-1, .cls-2 {
        stroke-width: 0px;
      }

      .cls-2 {
        fill: #060509;
      }
    </style>
    <linearGradient id="linear-gradient" x1="0" y1="25" x2="37.93" y2="25" gradientUnits="userSpaceOnUse">
      <stop offset="0" stop-color="#662c8d"/>
      <stop offset="1" stop-color="#26276c"/>
    </linearGradient>
  </defs>
  <path class="cls-1" d="m37.93,18.97C37.93,8.49,29.44,0,18.97,0S0,8.49,0,18.97h0s0,0,0,0H0s.73,0,.73,0h4.41s.02,0,.03,0v5.17H0s0,0,0,0v25.86h5.17v-12.87c3.46,3.67,8.35,5.98,13.79,5.98,4.07,0,7.84-1.3,10.93-3.48,1.55,3.17,2.51,6.67,2.74,10.38h5.17c-.27-5.09-1.66-9.88-3.99-14.09,2.57-3.24,4.11-7.32,4.11-11.77h0v-5.17h0Zm-20.41,18.89c-6.94-.72-12.35-6.59-12.35-13.72.35,0,.69.04,1.03.05,1.43.05,2.83.2,4.19.46,5.06.98,9.62,3.35,13.28,6.69,1.47-.96,2.61-2.36,3.28-4-1.31-1.17-2.71-2.25-4.2-3.2-3.34-2.14-7.08-3.71-11.1-4.52-1.78-.36-3.62-.54-5.49-.6-.33-.01-.66-.05-.99-.05h0s0,0,0,0c0-7.62,6.18-13.79,13.79-13.79s13.79,6.18,13.79,13.79h0v5.17h0c0,2.63-.75,5.08-2.03,7.17-.92,1.51-2.13,2.83-3.55,3.89-2.3,1.71-5.14,2.74-8.22,2.74-.49,0-.96-.04-1.44-.08Z"/>
  <g>
    <path class="cls-2" d="m54.13,15.42h7.95c4.81,0,7.2,2.13,7.2,5.45,0,2.5-1.08,4.28-3.7,4.6v.06c2.71.32,3.58,2.04,3.58,4.43v4.63h-2.51v-4.63c0-2.04-.9-3.35-4.08-3.35h-6v7.98h-2.45V15.42Zm7.92,9.38c3.5,0,4.83-1.49,4.83-3.73,0-2.13-1.57-3.44-4.81-3.44h-5.5v7.17h5.48Z"/>
    <path class="cls-2" d="m76.2,15.42h12.7v2.21h-10.25v6.41h8.3v1.81h-8.3v6.52h10.52v2.21h-12.96V15.42Z"/>
    <path class="cls-2" d="m95.42,15.42h4.08l5.94,15.88h.03l6.03-15.88h3.99v19.17h-2.48l.06-17.51h-.06l-6.64,17.51h-1.98l-6.64-17.51h-.06l.06,17.51h-2.33V15.42Z"/>
    <path class="cls-2" d="m123.06,15.42h12.7v2.21h-10.25v6.41h8.3v1.81h-8.3v6.52h10.52v2.21h-12.96V15.42Z"/>
    <path class="cls-2" d="m142.28,15.42h6.99c5.91,0,9.55,3.61,9.55,9.55s-3.41,9.61-8.94,9.61h-7.6V15.42Zm7.54,16.95c4.08,0,6.55-2.74,6.55-7.4s-2.68-7.34-7.05-7.34h-4.6v14.74h5.1Z"/>
    <path class="cls-2" d="m165.64,15.42h2.45v19.17h-2.45V15.42Z"/>
    <path class="cls-2" d="m188.56,29.92h-9.93l-1.89,4.66h-2.56l8.1-19.17h2.91l8.1,19.17h-2.85l-1.86-4.66Zm-.73-1.81l-4.17-10.46h-.06l-4.25,10.46h8.48Z"/>
    <path class="cls-2" d="m200.7,17.6h-6.35v-2.18h15.15v2.18h-6.35v16.98h-2.45v-16.98Z"/>
    <path class="cls-2" d="m224.96,29.92h-9.93l-1.89,4.66h-2.56l8.1-19.17h2.91l8.1,19.17h-2.85l-1.86-4.66Zm-.73-1.81l-4.17-10.46h-.06l-4.25,10.46h8.48Z"/>
  </g>
</svg>