<svg width="112" height="112" viewBox="0 0 112 112" fill="none" xmlns="http://www.w3.org/2000/svg">
<path fill-rule="evenodd" clip-rule="evenodd" d="M82.1715 40.132C83.0301 40.9906 84.4611 41.0224 85.3515 40.132C86.2419 39.2416 86.2419 37.8424 85.3515 36.952C84.4611 36.0616 83.0619 36.0616 82.1715 36.952C81.2811 37.8424 81.3129 39.2734 82.1715 40.132Z" fill="black"/>
<path fill-rule="evenodd" clip-rule="evenodd" d="M22.3872 81.7265C21.783 79.1507 22.0692 77.2744 23.6592 76.1296C23.8818 75.9706 24.0726 75.8434 24.327 75.7798C25.917 74.8894 27.4434 75.5254 29.0653 77.7833C30.7507 80.1047 30.7189 82.9349 28.1748 84.8429C27.7932 85.0973 27.3798 85.3835 26.9028 85.6061L27.666 86.4965C28.1748 86.2421 28.5882 86.0195 28.9699 85.7015C32.2135 83.3483 32.0545 79.8185 29.8921 76.7656C26.4894 72.0274 22.6734 73.1722 20.988 74.2216C20.7336 74.3488 20.5428 74.5396 20.352 74.7304C15.1049 79.0871 22.26 86.3693 18.0624 89.4221C17.9352 89.4857 17.8398 89.5811 17.6808 89.6765C16.3134 90.4716 14.5007 89.8037 13.6739 88.6589C12.2111 86.6237 13.5149 84.5567 16.2816 82.5533L14.3735 79.8821C14.2463 79.9457 14.0555 80.0729 13.8965 80.1683C11.5433 81.8855 10.1123 85.0337 13.0061 89.0723C15.7727 92.9202 19.239 92.1888 21.2424 90.7578C24.2316 88.5953 23.1186 85.0019 22.3872 81.7265Z" fill="black"/>
<path fill-rule="evenodd" clip-rule="evenodd" d="M23.9769 63.9185L4.38798 68.3705L5.18298 71.7731L24.7719 67.3847L23.9769 63.9185Z" fill="black"/>
<path fill-rule="evenodd" clip-rule="evenodd" d="M24.7401 51.389C25.0899 48.8132 24.1995 46.7144 22.1961 45.4742L26.1712 43.7252L26.2984 43.4072L17.1717 41.7218L16.7265 45.029L18.8571 45.3788C21.1149 45.7286 23.7861 47.7002 23.3727 51.1028C22.9275 54.6009 20.0019 56.5089 13.7691 55.6821C7.56801 54.8871 4.92858 51.6752 5.34199 48.6542C5.65999 46.1738 7.72701 44.1704 12.02 44.711L12.4652 41.4674C12.2744 41.4038 11.9246 41.372 11.6702 41.3084C9.06262 40.9268 4.92859 42.5804 4.13358 48.527C3.40217 53.8377 6.8048 58.5759 13.6101 59.5299C19.8429 60.3567 23.8497 57.5583 24.7401 51.389Z" fill="black"/>
<path fill-rule="evenodd" clip-rule="evenodd" d="M79.9769 77.6245C78.3869 79.7233 78.1325 81.9493 79.2773 84.0481L74.6027 83.5075L74.4119 83.7619L81.7578 89.7722L83.793 87.1009L82.1076 85.7335C80.3268 84.3343 78.9911 81.2815 81.0264 78.5467C83.157 75.7165 86.5914 75.5257 91.6476 79.3099C96.6403 83.0941 97.3717 87.1327 95.4955 89.5814C93.9691 91.553 91.2342 92.3162 87.7362 89.7086L85.7646 92.3162C85.9236 92.4752 86.178 92.666 86.4006 92.825C88.4994 94.415 92.9196 95.0192 96.5449 90.2492C99.7885 85.9879 99.2161 80.2003 93.7147 75.9709C88.6584 72.2502 83.793 72.6636 79.9769 77.6245Z" fill="black"/>
<path fill-rule="evenodd" clip-rule="evenodd" d="M49.7984 26.9029C55.9358 25.7899 56.2856 21.4333 55.6814 18.0943L53.4554 5.88296L49.8938 6.13736L52.565 20.8927C52.9466 22.9915 52.3106 25.5991 49.703 26.1079C47.2544 26.5849 45.6007 24.2953 45.1873 22.2283L42.5479 7.63197L39.0817 8.49058L41.3395 20.7337C41.9119 24.0409 43.8835 27.9841 49.7984 26.9029Z" fill="black"/>
<path fill-rule="evenodd" clip-rule="evenodd" d="M59.9745 26.3941L66.8752 15.741L68.338 29.4151L69.3556 29.9239L80.6447 21.1152L75.8429 33.4855L78.4823 35.9978L85.7963 15.4548L85.6691 15.3912L71.6452 26.6167L70.5004 7.85454L70.3732 7.79094L58.6389 26.2033L59.9745 26.3941Z" fill="black"/>
<path fill-rule="evenodd" clip-rule="evenodd" d="M87.1957 55.0778L88.5631 55.2368L86.3689 47.3822L105.036 42.2623L103.986 38.8597L84.2382 44.2976L87.1957 55.0778Z" fill="black"/>
<path fill-rule="evenodd" clip-rule="evenodd" d="M85.6058 69.0067L86.8142 69.7063L88.1498 61.5019L97.0857 62.9965L95.9726 69.9607L97.0857 70.1833L98.1987 63.0919L105.481 64.3321L104.432 71.6144L105.672 71.837L107.421 60.9295L87.4184 57.7812L85.6058 69.0067Z" fill="black"/>
<path fill-rule="evenodd" clip-rule="evenodd" d="M70.7868 90.6308L62.6777 93.2066L59.6885 89.645L55.6817 90.0266L70.596 107.739L73.9986 106.69L71.1048 103.287L72.5358 85.1293L71.1048 85.9243L70.7868 90.6308ZM70.0554 102.111L63.3455 94.0652L70.7232 91.7756L70.0554 102.111Z" fill="black"/>
<path fill-rule="evenodd" clip-rule="evenodd" d="M42.5801 87.4191L41.7851 88.5322L49.5761 90.5356L44.9015 109.075L48.3677 109.743L53.4557 90.154L42.5801 87.4191Z" fill="black"/>
<path fill-rule="evenodd" clip-rule="evenodd" d="M39.7177 30.2419L39.8449 30.1147L25.7256 15.2322L24.7716 16.059L34.5343 26.394L14.4365 26.2668L14.3093 26.394L28.6512 40.4816L29.4144 39.4639L20.1606 30.4645L39.7177 30.2419Z" fill="black"/>
<path fill-rule="evenodd" clip-rule="evenodd" d="M34.4071 87.8962C35.2657 88.7548 36.6967 88.7866 37.5871 87.8962C38.4457 87.0376 38.4775 85.6065 37.5871 84.7161C36.6967 83.8257 35.2975 83.8257 34.4071 84.7161C33.5167 85.6065 33.5485 87.0376 34.4071 87.8962Z" fill="black"/>
</svg>